<?xml version="1.0" encoding="utf-8"?>
<!-- Generator: Adobe Illustrator 16.0.0, SVG Export Plug-In . SVG Version: 6.00 Build 0)  -->
<!DOCTYPE svg PUBLIC "-//W3C//DTD SVG 1.1//EN" "http://www.w3.org/Graphics/SVG/1.1/DTD/svg11.dtd">
<svg version="1.1" id="Layer_1" xmlns="http://www.w3.org/2000/svg" xmlns:xlink="http://www.w3.org/1999/xlink" x="0px" y="0px"
	 width="136.911px" height="114.145px" viewBox="-546.367 -318.588 136.911 114.145"
	 enable-background="new -546.367 -318.588 136.911 114.145" xml:space="preserve">
<g id="zm0EMk.tif">
	<g>
		<path fill-rule="evenodd" clip-rule="evenodd" fill="#FFFFFF" d="M-526.164-302.071c12.591,14.205,27.75,22.203,46.164,23.554
			c0.414-4.029,0.303-7.88,1.262-11.443c4.076-15.151,22.609-21.553,34.953-11.9c3.024,2.364,5.452,2.45,8.497,1.3
			c2.675-1.009,5.299-2.149,7.946-3.232c0.297,0.236,0.593,0.471,0.89,0.707c-2.64,3.458-5.28,6.916-8.068,10.568
			c1.423-0.261,3.095-0.491,4.726-0.885c1.742-0.421,3.447-0.998,5.762-0.807c-2.673,2.707-5.501,5.283-7.955,8.177
			c-1.211,1.428-2.437,3.43-2.464,5.191c-0.503,32.585-22.913,58.843-55.199,63.515c-14.829,2.146-29.148-0.373-42.139-8.488
			c5.566-0.808,11.19-1.028,16.434-2.555c5.121-1.491,9.853-4.314,14.671-7.17c-9.761-1.789-16.639-6.512-20.458-16.1
			c3.17,0,5.844,0,8.518,0c-9.812-4.545-15.929-11.454-16.558-22.565c3.117,0.845,5.975,1.621,8.833,2.396
			C-528.863-280.654-531.609-290.179-526.164-302.071z"/>
	</g>
</g>
</svg>
